<svg width="32" height="32" viewBox="0 0 32 32" fill="none" xmlns="http://www.w3.org/2000/svg">
<rect x="1" y="1" width="30" height="30" rx="4" fill="white" stroke="#007ACC" stroke-width="2"/>
<path d="M12.906 25.686L12.774 25.664C12.774 25.664 12.8693 25.5833 13.06 25.422L13.258 25.158L13.544 24.938C13.5733 24.8793 13.5953 24.8353 13.61 24.806C13.6393 24.7913 13.654 24.784 13.654 24.784H13.676C13.676 24.7987 13.6833 24.806 13.698 24.806C13.7273 24.806 13.8813 24.6887 14.16 24.454C14.1893 24.4247 14.2187 24.3953 14.248 24.366C14.2773 24.3367 14.3067 24.2927 14.336 24.234C14.4093 24.1607 14.4973 24.1167 14.6 24.102C14.7173 23.9847 14.8273 23.8307 14.93 23.64L15.062 23.574L15.48 23.178C15.568 23.1047 15.656 23.0533 15.744 23.024C15.744 22.9653 15.8027 22.892 15.92 22.804C15.9493 22.804 15.9933 22.7893 16.052 22.76C16.1107 22.7307 16.184 22.6353 16.272 22.474L16.558 22.342C16.5727 22.3273 16.5873 22.3053 16.602 22.276C16.6313 22.2613 16.6533 22.2247 16.668 22.166L16.866 21.968C16.9833 21.9387 17.0273 21.8873 16.998 21.814C17.174 21.7407 17.3207 21.6453 17.438 21.528C17.4527 21.4987 17.4673 21.462 17.482 21.418C17.4967 21.3887 17.5187 21.352 17.548 21.308L17.834 21.088L18.076 20.736C18.7507 20.0907 19.3667 19.4747 19.924 18.888C20.4813 18.2867 20.98 17.7293 21.42 17.216C21.42 17.172 21.4493 17.106 21.508 17.018C21.5667 16.93 21.596 16.8713 21.596 16.842C21.596 16.7833 21.5593 16.754 21.486 16.754C21.2807 16.754 21.2147 16.7907 21.288 16.864C21.288 16.8933 21.2733 16.908 21.244 16.908L21.002 16.842C20.958 16.842 20.914 16.8713 20.87 16.93C20.826 16.9887 20.7893 17.018 20.76 17.018C20.7453 17.018 20.7307 17.0107 20.716 16.996H20.672C20.6573 16.996 20.628 17.0107 20.584 17.04C20.5547 17.0547 20.5327 17.062 20.518 17.062C20.4887 17.062 20.4667 17.0547 20.452 17.04H20.408C20.364 17.1133 20.3347 17.15 20.32 17.15H20.298C20.298 17.1353 20.2907 17.128 20.276 17.128C20.2613 17.128 20.232 17.15 20.188 17.194C20.188 17.1793 20.1953 17.1647 20.21 17.15C20.1513 17.1207 20.1 17.106 20.056 17.106C20.012 17.106 19.9607 17.1427 19.902 17.216C19.8433 17.2893 19.7993 17.3333 19.77 17.348V17.26C19.6673 17.2307 19.6013 17.2233 19.572 17.238C19.5573 17.15 19.5207 17.106 19.462 17.106C19.3593 17.106 19.2127 17.1427 19.022 17.216C19.022 17.2307 18.9853 17.2967 18.912 17.414C18.8973 17.414 18.846 17.3993 18.758 17.37C18.6847 17.326 18.626 17.304 18.582 17.304L18.516 17.392C18.4867 17.3773 18.4573 17.37 18.428 17.37C18.4133 17.37 18.406 17.37 18.406 17.37C18.3913 17.37 18.3767 17.3773 18.362 17.392C18.3473 17.4067 18.3327 17.414 18.318 17.414C18.3033 17.414 18.2813 17.4067 18.252 17.392C18.2227 17.3773 18.2007 17.37 18.186 17.37C18.1567 17.37 18.1347 17.3773 18.12 17.392H18.054C18.01 17.392 17.9733 17.37 17.944 17.326H17.9L17.856 17.37L17.416 17.414C17.3427 17.414 17.2693 17.436 17.196 17.48C17.196 17.4507 17.1813 17.436 17.152 17.436L16.888 17.502C16.8587 17.502 16.8367 17.4947 16.822 17.48H16.778C16.7633 17.48 16.7193 17.4947 16.646 17.524C16.5873 17.5387 16.5507 17.5533 16.536 17.568H16.206C16.1913 17.568 16.1547 17.5827 16.096 17.612C16.052 17.6267 16.0227 17.634 16.008 17.634C15.9787 17.634 15.9567 17.6267 15.942 17.612H15.876C15.8027 17.612 15.7073 17.6633 15.59 17.766C15.59 17.7953 15.5827 17.832 15.568 17.876C15.568 17.92 15.5607 17.9713 15.546 18.03C15.2233 18.118 14.974 18.162 14.798 18.162C14.7833 18.162 14.776 18.1547 14.776 18.14H14.732C14.7027 18.14 14.6293 18.1987 14.512 18.316C14.4093 18.2573 14.3213 18.228 14.248 18.228C14.2333 18.228 14.2113 18.2427 14.182 18.272C14.1673 18.2867 14.1527 18.294 14.138 18.294C14.1087 18.294 14.0573 18.2867 13.984 18.272C13.9253 18.2573 13.8887 18.25 13.874 18.25C13.8447 18.25 13.808 18.2573 13.764 18.272C13.72 18.2867 13.6907 18.294 13.676 18.294C13.6613 18.294 13.6393 18.2867 13.61 18.272C13.5953 18.2427 13.5807 18.228 13.566 18.228H13.5C13.4853 18.2427 13.4707 18.25 13.456 18.25C13.3973 18.25 13.324 18.228 13.236 18.184C13.148 18.1253 13.0747 18.0887 13.016 18.074C12.9867 18.03 12.9353 17.9787 12.862 17.92C12.8033 17.8467 12.7373 17.7733 12.664 17.7C12.6493 17.6853 12.642 17.6487 12.642 17.59C12.51 17.5167 12.444 17.458 12.444 17.414C12.444 17.282 12.488 17.216 12.576 17.216L13.258 17.304C13.2727 17.304 13.2947 17.2967 13.324 17.282C13.368 17.2673 13.4047 17.26 13.434 17.26C14.534 17.26 15.7367 17.194 17.042 17.062C18.362 16.93 19.7847 16.7393 21.31 16.49C21.3833 16.4753 21.4787 16.4607 21.596 16.446C21.7133 16.4167 21.8453 16.3727 21.992 16.314C22.0213 16.2847 22.0213 16.248 21.992 16.204C22.1827 16.204 22.322 16.0353 22.41 15.698C22.454 15.6833 22.5493 15.544 22.696 15.28C22.7987 15.236 22.8573 15.1847 22.872 15.126C22.9013 15.0527 22.9893 14.9867 23.136 14.928L23.246 14.334C23.246 14.3487 23.268 14.356 23.312 14.356C23.356 14.356 23.4 14.3267 23.444 14.268V14.18C23.5173 14.0773 23.598 13.9967 23.686 13.938L23.774 13.542C23.7887 13.5273 23.818 13.4393 23.862 13.278L24.038 13.014C24.1407 12.8233 24.1773 12.618 24.148 12.398C24.2507 12.2807 24.3093 12.156 24.324 12.024C24.324 11.9213 24.3533 11.8333 24.412 11.76V11.584L24.456 11.32C24.456 11.3053 24.456 11.2833 24.456 11.254C24.456 11.2247 24.4487 11.1807 24.434 11.122H24.478L24.434 11.1C24.434 10.9827 24.434 10.9093 24.434 10.88C24.434 10.8507 24.4413 10.858 24.456 10.902L24.39 10.55C24.4193 10.5207 24.4193 10.4987 24.39 10.484C24.3753 10.396 24.3093 10.2713 24.192 10.11V10.088C24.192 10.0147 24.1627 9.94867 24.104 9.89C24.0453 9.83133 23.994 9.79467 23.95 9.78C23.9647 9.67733 23.796 9.516 23.444 9.296C23.4147 9.296 23.3707 9.28133 23.312 9.252C23.2533 9.22267 23.2313 9.208 23.246 9.208H23.18V9.164C23.1653 9.164 23.136 9.164 23.092 9.164C23.1213 9.164 23.0773 9.12 22.96 9.032C22.4027 8.65067 21.442 8.46 20.078 8.46C18.582 8.46 17.328 8.60667 16.316 8.9C16.3013 8.9 16.2427 8.92933 16.14 8.988C16.052 9.032 16.0007 9.054 15.986 9.054L15.502 8.988L15.37 9.142C15.3113 9.15667 15.2673 9.17133 15.238 9.186C15.2087 9.186 15.2013 9.186 15.216 9.186C15.2013 9.186 15.1867 9.17867 15.172 9.164H15.106C15.0327 9.164 14.9153 9.21533 14.754 9.318L14.71 9.384C14.578 9.34 14.4973 9.318 14.468 9.318C14.3947 9.318 14.2993 9.35467 14.182 9.428L14.116 9.582C14.028 9.55267 13.984 9.538 13.984 9.538C13.9253 9.538 13.874 9.56733 13.83 9.626H13.742C13.5367 9.626 13.4267 9.69933 13.412 9.846C13.368 9.89 13.324 9.912 13.28 9.912C13.2653 9.912 13.2507 9.90467 13.236 9.89H13.214L12.994 9.956C12.9793 9.956 12.972 9.94867 12.972 9.934C12.9867 9.91933 12.9793 9.912 12.95 9.912C12.862 9.912 12.708 10.0293 12.488 10.264L12.422 10.198C12.4073 10.198 12.3853 10.22 12.356 10.264C12.3267 10.2347 12.2753 10.3153 12.202 10.506C12.2167 10.5207 12.2387 10.528 12.268 10.528C12.3267 10.528 12.3853 10.4987 12.444 10.44C12.444 10.4693 12.4587 10.484 12.488 10.484C12.5613 10.484 12.6713 10.4327 12.818 10.33L12.862 10.242C12.9353 10.2273 13.0233 10.2053 13.126 10.176C13.2433 10.1467 13.3753 10.1173 13.522 10.088C13.5367 10.088 13.588 10.0513 13.676 9.978C13.7787 9.90467 13.8447 9.868 13.874 9.868C13.9033 9.868 13.9253 9.87533 13.94 9.89H14.028C14.072 9.89 14.1673 9.868 14.314 9.824V9.89C14.27 9.934 14.2113 9.96333 14.138 9.978C14.1087 9.978 14.0647 10.0073 14.006 10.066C13.962 10.11 13.9327 10.132 13.918 10.132H13.874C13.874 10.1173 13.8667 10.11 13.852 10.11C13.6613 10.1687 13.5587 10.2273 13.544 10.286C13.0747 10.4033 12.7153 10.5647 12.466 10.77C12.334 10.7993 12.2607 10.8433 12.246 10.902C12.1433 10.946 12.0627 10.968 12.004 10.968C11.9453 10.968 11.8133 11.0193 11.608 11.122C11.1533 11.3713 10.728 11.65 10.332 11.958C9.936 12.2513 9.57667 12.574 9.254 12.926C9.254 12.9407 9.26133 13.014 9.276 13.146C9.276 13.146 9.30533 13.1607 9.364 13.19C9.408 13.278 9.474 13.322 9.562 13.322C9.57667 13.322 9.59133 13.3147 9.606 13.3C9.62067 13.2853 9.63533 13.278 9.65 13.278C9.67933 13.278 9.70133 13.2927 9.716 13.322C9.73067 13.3367 9.74533 13.344 9.76 13.344H10.024C10.068 13.3293 10.1047 13.322 10.134 13.322C10.1487 13.322 10.1853 13.3293 10.244 13.344C10.3027 13.3587 10.42 13.3733 10.596 13.388C10.6253 13.4467 10.6253 13.4907 10.596 13.52C10.596 13.5053 10.5813 13.498 10.552 13.498C10.5373 13.498 10.464 13.52 10.332 13.564C10.2147 13.608 10.1487 13.63 10.134 13.63C10.1193 13.63 10.1047 13.6227 10.09 13.608H10.024C10.0093 13.608 9.99467 13.6153 9.98 13.63C9.96533 13.6447 9.95067 13.652 9.936 13.652C9.92133 13.652 9.90667 13.6447 9.892 13.63C9.892 13.6153 9.88467 13.608 9.87 13.608C9.84067 13.608 9.81133 13.6227 9.782 13.652C9.66467 13.6667 9.59133 13.6813 9.562 13.696C9.57667 13.696 9.584 13.696 9.584 13.696C9.55467 13.696 9.54733 13.696 9.562 13.696C9.54733 13.6813 9.52533 13.6667 9.496 13.652C9.48133 13.6373 9.46667 13.63 9.452 13.63C9.42267 13.63 9.37867 13.6373 9.32 13.652C9.26133 13.6667 9.22467 13.674 9.21 13.674C9.166 13.674 9.11467 13.674 9.056 13.674C9.012 13.6593 8.95333 13.6447 8.88 13.63C8.85067 13.6153 8.792 13.5787 8.704 13.52C8.616 13.4613 8.528 13.432 8.44 13.432L8.242 13.102C8.242 13.0727 8.242 13.0433 8.242 13.014C8.242 12.9847 8.23467 12.948 8.22 12.904C8.20533 12.8747 8.18333 12.8527 8.154 12.838C8.13933 12.8087 8.132 12.7867 8.132 12.772C8.132 12.64 8.16867 12.5593 8.242 12.53C8.242 12.4127 8.27867 12.2953 8.352 12.178C8.42533 12.0607 8.594 11.8847 8.858 11.65C8.858 11.562 8.99 11.4227 9.254 11.232C9.31267 11.232 9.42267 11.144 9.584 10.968C9.672 10.9533 9.848 10.8287 10.112 10.594C10.1267 10.594 10.156 10.5647 10.2 10.506C10.2587 10.4473 10.2953 10.418 10.31 10.418L10.398 10.44L12.026 9.516C12.026 9.54533 12.048 9.56 12.092 9.56C12.1067 9.56 12.1727 9.516 12.29 9.428C12.422 9.34 12.4953 9.296 12.51 9.296C12.5247 9.296 12.5393 9.30333 12.554 9.318H12.576C12.62 9.318 12.664 9.30333 12.708 9.274C12.752 9.24467 12.7887 9.22267 12.818 9.208C13.1407 9.076 13.544 8.944 14.028 8.812C14.1013 8.768 14.138 8.746 14.138 8.746C14.1527 8.746 14.16 8.75333 14.16 8.768C14.292 8.768 14.38 8.73867 14.424 8.68C14.4533 8.68 14.4827 8.68 14.512 8.68C14.5413 8.68 14.578 8.67267 14.622 8.658C14.666 8.614 14.6953 8.592 14.71 8.592C14.7247 8.592 14.732 8.59933 14.732 8.614H14.776C14.7907 8.614 14.8273 8.59933 14.886 8.57C14.9593 8.54067 15.0107 8.526 15.04 8.526H15.062C15.0767 8.54067 15.0913 8.548 15.106 8.548C15.1353 8.548 15.1573 8.526 15.172 8.482C15.2747 8.46733 15.414 8.438 15.59 8.394C15.7807 8.35 16.03 8.29133 16.338 8.218H16.448C16.492 8.218 16.536 8.218 16.58 8.218C16.624 8.218 16.6753 8.21067 16.734 8.196L17.042 8.108C17.0567 8.108 17.0713 8.108 17.086 8.108C17.1153 8.108 17.1593 8.11533 17.218 8.13H17.394C17.4087 8.13 17.4453 8.108 17.504 8.064C17.5773 8.064 17.6653 8.064 17.768 8.064C17.8707 8.04933 17.988 8.03467 18.12 8.02L18.186 7.976C18.2153 7.976 18.2373 7.98333 18.252 7.998C18.296 7.998 18.318 7.98333 18.318 7.954H18.714L18.956 7.91H19.088C19.132 7.92467 19.1687 7.932 19.198 7.932C19.2273 7.932 19.2933 7.92467 19.396 7.91C19.5133 7.89533 19.5793 7.888 19.594 7.888C19.6233 7.888 19.66 7.89533 19.704 7.91H19.792C19.8213 7.91 19.8873 7.89533 19.99 7.866C20.0927 7.822 20.1513 7.8 20.166 7.8C20.166 7.8 20.1807 7.81467 20.21 7.844C20.254 7.85867 20.32 7.866 20.408 7.866C20.4227 7.866 20.4373 7.85867 20.452 7.844H20.496C20.54 7.844 20.5987 7.88067 20.672 7.954C20.7453 7.93933 20.7967 7.932 20.826 7.932C20.8553 7.91733 20.87 7.91 20.87 7.91C20.8847 7.91 20.892 7.91733 20.892 7.932C20.9067 7.94667 20.9287 7.954 20.958 7.954H20.98C20.9947 7.93933 21.0093 7.932 21.024 7.932C21.0387 7.932 21.068 7.94667 21.112 7.976C21.156 8.00533 21.1853 8.02 21.2 8.02H21.354C21.4127 8.00533 21.464 7.998 21.508 7.998C21.508 7.998 21.5227 8.00533 21.552 8.02C21.596 8.02 21.6547 8.02733 21.728 8.042C21.7427 8.042 21.7647 8.05667 21.794 8.086C21.926 8.174 22.0507 8.23267 22.168 8.262C22.2853 8.29133 22.366 8.33533 22.41 8.394C22.4247 8.394 22.4467 8.38667 22.476 8.372C22.52 8.34267 22.5493 8.328 22.564 8.328C22.564 8.328 22.7253 8.394 23.048 8.526V8.57C23.048 8.57 23.048 8.57733 23.048 8.592C23.092 8.57733 23.1433 8.57 23.202 8.57C23.3047 8.57 23.3633 8.614 23.378 8.702C23.4073 8.77533 23.4733 8.82667 23.576 8.856C23.576 8.856 23.5907 8.87067 23.62 8.9C23.6493 8.91467 23.7007 8.92933 23.774 8.944C23.7887 8.95867 23.8033 8.988 23.818 9.032C23.8327 9.06133 23.8473 9.10533 23.862 9.164C23.8767 9.164 23.906 9.17867 23.95 9.208C23.994 9.23733 24.016 9.274 24.016 9.318C24.1773 9.362 24.2287 9.384 24.17 9.384C24.1993 9.384 24.2213 9.37667 24.236 9.362C24.2947 9.42067 24.346 9.472 24.39 9.516C24.434 9.54533 24.478 9.56733 24.522 9.582C24.522 9.61133 24.5367 9.64067 24.566 9.67C24.61 9.68467 24.6833 9.758 24.786 9.89C24.9033 10.0073 24.9987 10.0587 25.072 10.044C25.1013 10.2493 25.138 10.352 25.182 10.352L25.27 10.33C25.2553 10.3447 25.248 10.3667 25.248 10.396L25.336 10.638C25.3947 10.6673 25.4313 10.7187 25.446 10.792C25.4753 10.8507 25.4753 10.9387 25.446 11.056C25.4313 11.0707 25.424 11.0927 25.424 11.122C25.4533 11.166 25.4827 11.188 25.512 11.188C25.5413 11.2907 25.5633 11.342 25.578 11.342C25.5633 11.3567 25.5487 11.386 25.534 11.43C25.5193 11.4593 25.4973 11.496 25.468 11.54C25.468 11.7307 25.446 11.936 25.402 12.156C25.358 12.4493 25.292 12.772 25.204 13.124L25.05 13.41L24.962 13.542V13.652C24.9473 13.6667 24.9327 13.6887 24.918 13.718C24.9033 13.7473 24.8887 13.7767 24.874 13.806C24.8447 13.8353 24.8447 13.9087 24.874 14.026C24.8593 14.0407 24.8153 14.0847 24.742 14.158C24.6687 14.2313 24.654 14.2973 24.698 14.356C24.6833 14.3707 24.676 14.3927 24.676 14.422C24.632 14.422 24.5953 14.444 24.566 14.488C24.522 14.576 24.5 14.6273 24.5 14.642C24.4853 14.6567 24.456 14.6713 24.412 14.686C24.3827 14.7007 24.346 14.7227 24.302 14.752C24.302 14.7813 24.28 14.818 24.236 14.862C24.2067 14.9353 24.1627 15.0233 24.104 15.126C24.0453 15.2287 23.9793 15.3533 23.906 15.5L23.708 15.654C23.6933 15.7127 23.598 15.8593 23.422 16.094V16.138C23.4513 16.1673 23.4807 16.182 23.51 16.182C23.5393 16.182 23.6053 16.16 23.708 16.116C23.8253 16.072 23.8693 16.05 23.84 16.05C23.8693 16.05 23.8913 16.0573 23.906 16.072H23.994C24.1113 16.072 24.1773 16.05 24.192 16.006C24.2213 16.0353 24.2507 16.05 24.28 16.05C24.2213 16.05 24.2947 16.0353 24.5 16.006C24.5147 16.006 24.5293 15.9913 24.544 15.962C24.5587 15.9327 24.5733 15.918 24.588 15.918C24.6027 15.918 24.6173 15.9253 24.632 15.94H24.654C24.6833 15.94 24.7273 15.918 24.786 15.874C24.8447 15.83 24.8813 15.808 24.896 15.808C24.9253 15.808 24.9473 15.83 24.962 15.874H25.028C25.0573 15.8593 25.116 15.808 25.204 15.72C25.2187 15.72 25.2553 15.7493 25.314 15.808H25.358L25.468 15.632C25.4827 15.6467 25.5193 15.654 25.578 15.654L25.622 15.72C25.446 15.852 25.3653 15.918 25.38 15.918L25.314 15.852C25.1673 15.9547 25.0867 16.006 25.072 16.006H25.028C25.0133 15.9913 24.984 15.984 24.94 15.984C24.9253 15.9987 24.918 16.0353 24.918 16.094L23.994 16.292C23.9207 16.3653 23.8547 16.402 23.796 16.402C23.7373 16.402 23.6713 16.4093 23.598 16.424C23.5247 16.424 23.4367 16.4313 23.334 16.446C23.3047 16.4607 23.2827 16.4753 23.268 16.49C23.2533 16.49 23.246 16.49 23.246 16.49H23.202C23.202 16.4753 23.1947 16.468 23.18 16.468C23.1507 16.468 23.1213 16.5047 23.092 16.578C23.092 16.5633 23.0847 16.5487 23.07 16.534C23.0407 16.5633 23.004 16.6073 22.96 16.666C22.9307 16.71 22.894 16.7613 22.85 16.82H22.828C22.74 16.82 22.696 16.908 22.696 17.084L22.476 17.238C22.476 17.326 22.4613 17.392 22.432 17.436C22.4027 17.4653 22.322 17.5313 22.19 17.634L21.926 17.832C21.8673 17.9347 21.838 18.0227 21.838 18.096H21.772C21.6987 18.1693 21.618 18.272 21.53 18.404C21.4567 18.5213 21.3687 18.6607 21.266 18.822H21.2C21.112 18.822 21.068 18.844 21.068 18.888C21.068 18.9173 21.0607 18.9613 21.046 19.02C20.826 19.1373 20.7233 19.2473 20.738 19.35C20.562 19.3793 20.4667 19.4673 20.452 19.614C20.3933 19.614 20.276 19.746 20.1 20.01C20.0413 20.01 19.9753 20.076 19.902 20.208C19.7407 20.2373 19.638 20.3693 19.594 20.604C19.5353 20.6187 19.4767 20.6627 19.418 20.736C19.3593 20.7947 19.242 20.9047 19.066 21.066C19.0513 21.066 19.0293 21.066 19 21.066C18.9853 21.0807 18.8973 21.176 18.736 21.352L18.516 21.198L18.604 21.132V21.066C18.5893 21.0513 18.582 21.0293 18.582 21H18.538C18.5233 21 18.4867 21.022 18.428 21.066C18.3693 21.1247 18.3327 21.154 18.318 21.154H18.274C18.274 21.1393 18.2667 21.132 18.252 21.132C18.252 21.132 18.2373 21.154 18.208 21.198C18.1787 21.242 18.142 21.286 18.098 21.33C18.0687 21.3887 18.0247 21.4473 17.966 21.506L17.878 21.572C17.658 21.6307 17.548 21.7333 17.548 21.88C17.5187 21.924 17.4747 21.968 17.416 22.012C17.372 22.0707 17.3133 22.1367 17.24 22.21C17.1373 22.2687 17.0347 22.3273 16.932 22.386C16.844 22.4447 16.7927 22.5253 16.778 22.628L16.492 22.826C16.4773 22.8407 16.4553 22.8627 16.426 22.892C16.4113 22.9213 16.3747 22.958 16.316 23.002C16.316 23.0167 16.3087 23.0387 16.294 23.068L16.008 23.354C15.8613 23.4713 15.7293 23.574 15.612 23.662C15.5093 23.75 15.4213 23.8087 15.348 23.838C15.348 23.838 15.2893 23.8967 15.172 24.014H15.106C15.062 24.0433 15.0107 24.08 14.952 24.124C14.908 24.168 14.8493 24.2267 14.776 24.3C14.7173 24.3147 14.6073 24.4467 14.446 24.696C14.3727 24.696 14.2627 24.7767 14.116 24.938C13.9693 25.114 13.852 25.202 13.764 25.202H13.72C13.72 25.1873 13.7127 25.18 13.698 25.18C13.654 25.18 13.5293 25.312 13.324 25.576C13.2947 25.5613 13.2653 25.5467 13.236 25.532C13.2067 25.532 13.1773 25.532 13.148 25.532C13.0893 25.532 13.0087 25.5833 12.906 25.686ZM25.578 11.32C25.578 11.3493 25.578 11.3567 25.578 11.342C25.578 11.3273 25.578 11.32 25.578 11.32Z" fill="#2B2929"/>
</svg>
